{
	"asset":{
		"generator":"Khronos glTF Blender I/O v4.0.44",
		"version":"2.0"
	},
	"extensionsUsed":[
		"KHR_materials_specular",
		"KHR_materials_ior"
	],
	"scene":0,
	"scenes":[
		{
			"name":"Scene",
			"nodes":[
				4,
				5
			]
		}
	],
	"nodes":[
		{
			"mesh":0,
			"name":"instance_0",
			"translation":[
				7.7021803855896,
				9.341529846191406,
				-18.61860466003418
			]
		},
		{
			"mesh":1,
			"name":"instance_0.001",
			"translation":[
				9.975878715515137,
				5.568389415740967,
				-24.257949829101562
			]
		},
		{
			"mesh":2,
			"name":"instance_0.002",
			"translation":[
				7.702181339263916,
				9.341530799865723,
				-29.897293090820312
			]
		},
		{
			"mesh":3,
			"name":"instance_0.003",
			"translation":[
				4.202180862426758,
				8.42709732055664,
				-24.257949829101562
			]
		},
		{
			"children":[
				0,
				1,
				2,
				3
			],
			"name":"bag",
			"rotation":[
				0.23896245658397675,
				-0.8587728142738342,
				-0.2884446084499359,
				0.34957990050315857
			],
			"scale":[
				0.02540000155568123,
				0.02539999969303608,
				0.02539999969303608
			],
			"translation":[
				-0.28356266021728516,
				0.2435043901205063,
				-0.5996387600898743
			]
		},
		{
			"name":"AnchorPoint",
			"rotation":[
				0.23896238207817078,
				-0.8587727546691895,
				-0.2884446382522583,
				0.3495798707008362
			],
			"translation":[
				0.0541546493768692,
				0.2948283851146698,
				0.21851564943790436
			]
		}
	],
	"materials":[
		{
			"doubleSided":true,
			"extensions":{
				"KHR_materials_specular":{
					"specularFactor":0
				},
				"KHR_materials_ior":{
					"ior":1.4500000476837158
				}
			},
			"name":"_0043_SaddleBrown",
			"pbrMetallicRoughness":{
				"baseColorFactor":[
					0.5450980067253113,
					0.4000000059604645,
					0.26274511218070984,
					1
				],
				"metallicFactor":0,
				"roughnessFactor":0.5
			}
		}
	],
	"meshes":[
		{
			"name":"ID5",
			"primitives":[
				{
					"attributes":{
						"POSITION":0,
						"NORMAL":1,
						"TEXCOORD_0":2
					},
					"indices":3,
					"material":0
				}
			]
		},
		{
			"name":"ID13",
			"primitives":[
				{
					"attributes":{
						"POSITION":4,
						"NORMAL":5,
						"TEXCOORD_0":6
					},
					"indices":7,
					"material":0
				}
			]
		},
		{
			"name":"ID19",
			"primitives":[
				{
					"attributes":{
						"POSITION":8,
						"NORMAL":9,
						"TEXCOORD_0":10
					},
					"indices":11,
					"material":0
				}
			]
		},
		{
			"name":"ID25",
			"primitives":[
				{
					"attributes":{
						"POSITION":12,
						"NORMAL":13,
						"TEXCOORD_0":14
					},
					"indices":15,
					"material":0
				}
			]
		}
	],
	"accessors":[
		{
			"bufferView":0,
			"componentType":5126,
			"count":16,
			"max":[
				3.5,
				7.658470153808594,
				0.3606557548046112
			],
			"min":[
				-3.5,
				-9.341529846191406,
				-0.3893442451953888
			],
			"type":"VEC3"
		},
		{
			"bufferView":1,
			"componentType":5126,
			"count":16,
			"type":"VEC3"
		},
		{
			"bufferView":2,
			"componentType":5126,
			"count":16,
			"type":"VEC2"
		},
		{
			"bufferView":3,
			"componentType":5123,
			"count":24,
			"type":"SCALAR"
		},
		{
			"bufferView":4,
			"componentType":5126,
			"count":54,
			"max":[
				1.2263036966323853,
				11.431610107421875,
				6
			],
			"min":[
				-5.773696422576904,
				-5.568389892578125,
				-6
			],
			"type":"VEC3"
		},
		{
			"bufferView":5,
			"componentType":5126,
			"count":54,
			"type":"VEC3"
		},
		{
			"bufferView":6,
			"componentType":5126,
			"count":54,
			"type":"VEC2"
		},
		{
			"bufferView":7,
			"componentType":5123,
			"count":114,
			"type":"SCALAR"
		},
		{
			"bufferView":8,
			"componentType":5126,
			"count":16,
			"max":[
				3.5,
				7.658470153808594,
				0.3893442153930664
			],
			"min":[
				-3.5,
				-9.341529846191406,
				-0.3606557846069336
			],
			"type":"VEC3"
		},
		{
			"bufferView":9,
			"componentType":5126,
			"count":16,
			"type":"VEC3"
		},
		{
			"bufferView":10,
			"componentType":5126,
			"count":16,
			"type":"VEC2"
		},
		{
			"bufferView":11,
			"componentType":5123,
			"count":24,
			"type":"SCALAR"
		},
		{
			"bufferView":12,
			"componentType":5126,
			"count":34,
			"max":[
				0,
				8.57290267944336,
				6.000000476837158
			],
			"min":[
				0,
				-8.42709732055664,
				-5.999999523162842
			],
			"type":"VEC3"
		},
		{
			"bufferView":13,
			"componentType":5126,
			"count":34,
			"type":"VEC3"
		},
		{
			"bufferView":14,
			"componentType":5126,
			"count":34,
			"type":"VEC2"
		},
		{
			"bufferView":15,
			"componentType":5123,
			"count":90,
			"type":"SCALAR"
		}
	],
	"bufferViews":[
		{
			"buffer":0,
			"byteLength":192,
			"byteOffset":0,
			"target":34962
		},
		{
			"buffer":0,
			"byteLength":192,
			"byteOffset":192,
			"target":34962
		},
		{
			"buffer":0,
			"byteLength":128,
			"byteOffset":384,
			"target":34962
		},
		{
			"buffer":0,
			"byteLength":48,
			"byteOffset":512,
			"target":34963
		},
		{
			"buffer":0,
			"byteLength":648,
			"byteOffset":560,
			"target":34962
		},
		{
			"buffer":0,
			"byteLength":648,
			"byteOffset":1208,
			"target":34962
		},
		{
			"buffer":0,
			"byteLength":432,
			"byteOffset":1856,
			"target":34962
		},
		{
			"buffer":0,
			"byteLength":228,
			"byteOffset":2288,
			"target":34963
		},
		{
			"buffer":0,
			"byteLength":192,
			"byteOffset":2516,
			"target":34962
		},
		{
			"buffer":0,
			"byteLength":192,
			"byteOffset":2708,
			"target":34962
		},
		{
			"buffer":0,
			"byteLength":128,
			"byteOffset":2900,
			"target":34962
		},
		{
			"buffer":0,
			"byteLength":48,
			"byteOffset":3028,
			"target":34963
		},
		{
			"buffer":0,
			"byteLength":408,
			"byteOffset":3076,
			"target":34962
		},
		{
			"buffer":0,
			"byteLength":408,
			"byteOffset":3484,
			"target":34962
		},
		{
			"buffer":0,
			"byteLength":272,
			"byteOffset":3892,
			"target":34962
		},
		{
			"buffer":0,
			"byteLength":180,
			"byteOffset":4164,
			"target":34963
		}
	],
	"buffers":[
		{
			"byteLength":4344,
			"uri":"bag.bin"
		}
	]
}
