{
	"asset":{
		"generator":"Khronos glTF Blender I/O v4.0.44",
		"version":"2.0"
	},
	"extensionsUsed":[
		"KHR_materials_specular",
		"KHR_materials_ior"
	],
	"scene":0,
	"scenes":[
		{
			"name":"Scene",
			"nodes":[
				0,
				1,
				2,
				3,
				4,
				5,
				6,
				7,
				8,
				9,
				10,
				11,
				12
			]
		}
	],
	"nodes":[
		{
			"mesh":0,
			"name":"instance_0.006",
			"rotation":[
				0.6205000877380371,
				-0.33951234817504883,
				-0.6198344230651855,
				0.3398769199848175
			],
			"translation":[
				-5.553110599517822,
				-4.080904006958008,
				-2.046036720275879
			]
		},
		{
			"mesh":1,
			"name":"instance_0.007",
			"rotation":[
				0.6205000877380371,
				-0.33951234817504883,
				-0.6198344230651855,
				0.3398769199848175
			],
			"translation":[
				5.361546039581299,
				-4.062517166137695,
				-2.034287929534912
			]
		},
		{
			"mesh":2,
			"name":"instance_1.006",
			"rotation":[
				0.6205000877380371,
				-0.33951234817504883,
				-0.6198344230651855,
				0.3398769199848175
			],
			"translation":[
				5.1387200355529785,
				5.533524036407471,
				4.097169876098633
			]
		},
		{
			"mesh":3,
			"name":"instance_1.007",
			"rotation":[
				0.6205000877380371,
				-0.33951234817504883,
				-0.6198344230651855,
				0.3398769199848175
			],
			"translation":[
				-3.7326087951660156,
				5.559087753295898,
				4.113503456115723
			]
		},
		{
			"mesh":4,
			"name":"instance_2.006",
			"rotation":[
				0.6205000877380371,
				-0.33951234817504883,
				-0.6198344230651855,
				0.3398769199848175
			],
			"translation":[
				2.3225131034851074,
				0.8927487730979919,
				0.15900158882141113
			]
		},
		{
			"mesh":5,
			"name":"instance_2.007",
			"rotation":[
				0.6205000877380371,
				-0.33951234817504883,
				-0.6198344230651855,
				0.3398769199848175
			],
			"translation":[
				-7.891305446624756,
				-0.5874080657958984,
				-0.7867550849914551
			]
		},
		{
			"mesh":6,
			"name":"instance_3.006",
			"rotation":[
				0.6205000877380371,
				-0.33951234817504883,
				-0.6198344230651855,
				0.3398769199848175
			],
			"translation":[
				-2.257084846496582,
				5.097801685333252,
				2.8458495140075684
			]
		},
		{
			"mesh":7,
			"name":"instance_3.007",
			"rotation":[
				0.6205000877380371,
				-0.33951234817504883,
				-0.6198344230651855,
				0.3398769199848175
			],
			"translation":[
				7.971484661102295,
				5.492998123168945,
				3.098362922668457
			]
		},
		{
			"mesh":8,
			"name":"instance_4.006",
			"rotation":[
				0.6205000877380371,
				-0.33951234817504883,
				-0.6198344230651855,
				0.3398769199848175
			],
			"translation":[
				-2.2406845092773438,
				-3.458383321762085,
				-2.5841007232666016
			]
		},
		{
			"mesh":9,
			"name":"instance_4.007",
			"rotation":[
				0.6205000877380371,
				-0.33951234817504883,
				-0.6198344230651855,
				0.3398769199848175
			],
			"translation":[
				7.476600170135498,
				0.8299548625946045,
				1.0917913913726807
			]
		},
		{
			"mesh":10,
			"name":"instance_5.006",
			"rotation":[
				0.6205000877380371,
				-0.33951234817504883,
				-0.6198344230651855,
				0.3398769199848175
			],
			"translation":[
				-6.502910137176514,
				0.7467434406280518,
				1.0386228561401367
			]
		},
		{
			"mesh":11,
			"name":"instance_5.007",
			"rotation":[
				0.6205000877380371,
				-0.33951234817504883,
				-0.6198344230651855,
				0.3398769199848175
			],
			"translation":[
				7.928634166717529,
				-1.4729455709457397,
				-1.3525753021240234
			]
		},
		{
			"name":"AnchorPoint.002",
			"rotation":[
				0.8770490288734436,
				0,
				0,
				0.4804009199142456
			],
			"translation":[
				0,
				-5.050808429718018,
				-3.5397934913635254
			]
		}
	],
	"materials":[
		{
			"doubleSided":true,
			"extensions":{
				"KHR_materials_specular":{
					"specularFactor":0
				},
				"KHR_materials_ior":{
					"ior":1.4500000476837158
				}
			},
			"name":"_0103_Blue",
			"pbrMetallicRoughness":{
				"baseColorFactor":[
					0.14901959896087646,
					0.384313702583313,
					0.6470587849617004,
					1
				],
				"metallicFactor":0,
				"roughnessFactor":0.5
			}
		}
	],
	"meshes":[
		{
			"name":"ID5.003",
			"primitives":[
				{
					"attributes":{
						"POSITION":0,
						"NORMAL":1,
						"TEXCOORD_0":2
					},
					"indices":3,
					"material":0
				}
			]
		},
		{
			"name":"ID13.003",
			"primitives":[
				{
					"attributes":{
						"POSITION":4,
						"NORMAL":5,
						"TEXCOORD_0":6
					},
					"indices":7,
					"material":0
				}
			]
		},
		{
			"name":"ID21.003",
			"primitives":[
				{
					"attributes":{
						"POSITION":8,
						"NORMAL":9,
						"TEXCOORD_0":10
					},
					"indices":11,
					"material":0
				}
			]
		},
		{
			"name":"ID27.003",
			"primitives":[
				{
					"attributes":{
						"POSITION":12,
						"NORMAL":13,
						"TEXCOORD_0":14
					},
					"indices":15,
					"material":0
				}
			]
		},
		{
			"name":"ID35.003",
			"primitives":[
				{
					"attributes":{
						"POSITION":16,
						"NORMAL":17,
						"TEXCOORD_0":18
					},
					"indices":19,
					"material":0
				}
			]
		},
		{
			"name":"ID41.003",
			"primitives":[
				{
					"attributes":{
						"POSITION":20,
						"NORMAL":21,
						"TEXCOORD_0":22
					},
					"indices":23,
					"material":0
				}
			]
		},
		{
			"name":"ID55.003",
			"primitives":[
				{
					"attributes":{
						"POSITION":24,
						"NORMAL":25,
						"TEXCOORD_0":26
					},
					"indices":27,
					"material":0
				}
			]
		},
		{
			"name":"ID61.003",
			"primitives":[
				{
					"attributes":{
						"POSITION":28,
						"NORMAL":29,
						"TEXCOORD_0":30
					},
					"indices":31,
					"material":0
				}
			]
		},
		{
			"name":"ID69.003",
			"primitives":[
				{
					"attributes":{
						"POSITION":32,
						"NORMAL":33,
						"TEXCOORD_0":34
					},
					"indices":35,
					"material":0
				}
			]
		},
		{
			"name":"ID75.003",
			"primitives":[
				{
					"attributes":{
						"POSITION":36,
						"NORMAL":37,
						"TEXCOORD_0":38
					},
					"indices":39,
					"material":0
				}
			]
		},
		{
			"name":"ID83.003",
			"primitives":[
				{
					"attributes":{
						"POSITION":40,
						"NORMAL":41,
						"TEXCOORD_0":42
					},
					"indices":43,
					"material":0
				}
			]
		},
		{
			"name":"ID89.003",
			"primitives":[
				{
					"attributes":{
						"POSITION":44,
						"NORMAL":45,
						"TEXCOORD_0":46
					},
					"indices":47,
					"material":0
				}
			]
		}
	],
	"accessors":[
		{
			"bufferView":0,
			"componentType":5126,
			"count":132,
			"max":[
				0.7404443025588989,
				0.03125,
				3.941173791885376
			],
			"min":[
				-0.7595556974411011,
				-0.03125,
				-4.808826446533203
			],
			"type":"VEC3"
		},
		{
			"bufferView":1,
			"componentType":5126,
			"count":132,
			"type":"VEC3"
		},
		{
			"bufferView":2,
			"componentType":5126,
			"count":132,
			"type":"VEC2"
		},
		{
			"bufferView":3,
			"componentType":5123,
			"count":312,
			"type":"SCALAR"
		},
		{
			"bufferView":4,
			"componentType":5126,
			"count":248,
			"max":[
				0.7505490183830261,
				0.03125,
				4.6058502197265625
			],
			"min":[
				-0.7494509816169739,
				-0.03125,
				-4.1441497802734375
			],
			"type":"VEC3"
		},
		{
			"bufferView":5,
			"componentType":5126,
			"count":248,
			"type":"VEC3"
		},
		{
			"bufferView":6,
			"componentType":5126,
			"count":248,
			"type":"VEC2"
		},
		{
			"bufferView":7,
			"componentType":5123,
			"count":552,
			"type":"SCALAR"
		},
		{
			"bufferView":8,
			"componentType":5126,
			"count":128,
			"max":[
				0.6384458541870117,
				0.03125,
				4.395247459411621
			],
			"min":[
				-0.8615541458129883,
				-0.03125,
				-4.354753494262695
			],
			"type":"VEC3"
		},
		{
			"bufferView":9,
			"componentType":5126,
			"count":128,
			"type":"VEC3"
		},
		{
			"bufferView":10,
			"componentType":5126,
			"count":128,
			"type":"VEC2"
		},
		{
			"bufferView":11,
			"componentType":5123,
			"count":312,
			"type":"SCALAR"
		},
		{
			"bufferView":12,
			"componentType":5126,
			"count":216,
			"max":[
				0.6783043146133423,
				0.03125,
				5.794285774230957
			],
			"min":[
				-0.8216956853866577,
				-0.03125,
				-2.976043701171875
			],
			"type":"VEC3"
		},
		{
			"bufferView":13,
			"componentType":5126,
			"count":216,
			"type":"VEC3"
		},
		{
			"bufferView":14,
			"componentType":5126,
			"count":216,
			"type":"VEC2"
		},
		{
			"bufferView":15,
			"componentType":5123,
			"count":456,
			"type":"SCALAR"
		},
		{
			"bufferView":16,
			"componentType":5126,
			"count":136,
			"max":[
				6.777830123901367,
				0.03125,
				0.8225679397583008
			],
			"min":[
				-7.639599800109863,
				-0.03125,
				-0.6774320602416992
			],
			"type":"VEC3"
		},
		{
			"bufferView":17,
			"componentType":5126,
			"count":136,
			"type":"VEC3"
		},
		{
			"bufferView":18,
			"componentType":5126,
			"count":136,
			"type":"VEC2"
		},
		{
			"bufferView":19,
			"componentType":5123,
			"count":336,
			"type":"SCALAR"
		},
		{
			"bufferView":20,
			"componentType":5126,
			"count":184,
			"max":[
				5.114855766296387,
				0.03125,
				0.8568701148033142
			],
			"min":[
				-9.385144233703613,
				-0.03125,
				-0.6431298851966858
			],
			"type":"VEC3"
		},
		{
			"bufferView":21,
			"componentType":5126,
			"count":184,
			"type":"VEC3"
		},
		{
			"bufferView":22,
			"componentType":5126,
			"count":184,
			"type":"VEC2"
		},
		{
			"bufferView":23,
			"componentType":5123,
			"count":384,
			"type":"SCALAR"
		},
		{
			"bufferView":24,
			"componentType":5126,
			"count":168,
			"max":[
				1.8554649353027344,
				0.03125,
				0.7483261823654175
			],
			"min":[
				-2.2695350646972656,
				-0.03125,
				-0.7516738176345825
			],
			"type":"VEC3"
		},
		{
			"bufferView":25,
			"componentType":5126,
			"count":168,
			"type":"VEC3"
		},
		{
			"bufferView":26,
			"componentType":5126,
			"count":168,
			"type":"VEC2"
		},
		{
			"bufferView":27,
			"componentType":5123,
			"count":432,
			"type":"SCALAR"
		},
		{
			"bufferView":28,
			"componentType":5126,
			"count":304,
			"max":[
				2.3134665489196777,
				0.03125,
				0.7273921966552734
			],
			"min":[
				-2.1865334510803223,
				-0.03125,
				-0.7726078033447266
			],
			"type":"VEC3"
		},
		{
			"bufferView":29,
			"componentType":5126,
			"count":304,
			"type":"VEC3"
		},
		{
			"bufferView":30,
			"componentType":5126,
			"count":304,
			"type":"VEC2"
		},
		{
			"bufferView":31,
			"componentType":5123,
			"count":696,
			"type":"SCALAR"
		},
		{
			"bufferView":32,
			"componentType":5126,
			"count":50,
			"max":[
				1.6057915687561035,
				0,
				0.7538493871688843
			],
			"min":[
				-2.7782416343688965,
				0,
				-0.7461506128311157
			],
			"type":"VEC3"
		},
		{
			"bufferView":33,
			"componentType":5126,
			"count":50,
			"type":"VEC3"
		},
		{
			"bufferView":34,
			"componentType":5126,
			"count":50,
			"type":"VEC2"
		},
		{
			"bufferView":35,
			"componentType":5123,
			"count":138,
			"type":"SCALAR"
		},
		{
			"bufferView":36,
			"componentType":5126,
			"count":237,
			"max":[
				0.804192841053009,
				0.03125,
				2.727130889892578
			],
			"min":[
				-0.695807158946991,
				-0.03125,
				-1.8713188171386719
			],
			"type":"VEC3"
		},
		{
			"bufferView":37,
			"componentType":5126,
			"count":237,
			"type":"VEC3"
		},
		{
			"bufferView":38,
			"componentType":5126,
			"count":237,
			"type":"VEC2"
		},
		{
			"bufferView":39,
			"componentType":5123,
			"count":576,
			"type":"SCALAR"
		},
		{
			"bufferView":40,
			"componentType":5126,
			"count":179,
			"max":[
				0.7204523086547852,
				0.03125,
				2.9723236560821533
			],
			"min":[
				-0.7795476913452148,
				-0.03125,
				-2.9920260906219482
			],
			"type":"VEC3"
		},
		{
			"bufferView":41,
			"componentType":5126,
			"count":179,
			"type":"VEC3"
		},
		{
			"bufferView":42,
			"componentType":5126,
			"count":179,
			"type":"VEC2"
		},
		{
			"bufferView":43,
			"componentType":5123,
			"count":456,
			"type":"SCALAR"
		},
		{
			"bufferView":44,
			"componentType":5126,
			"count":184,
			"max":[
				4.0470075607299805,
				0.03125,
				0.6756706237792969
			],
			"min":[
				-4.7029924392700195,
				-0.03125,
				-0.8243293762207031
			],
			"type":"VEC3"
		},
		{
			"bufferView":45,
			"componentType":5126,
			"count":184,
			"type":"VEC3"
		},
		{
			"bufferView":46,
			"componentType":5126,
			"count":184,
			"type":"VEC2"
		},
		{
			"bufferView":47,
			"componentType":5123,
			"count":456,
			"type":"SCALAR"
		}
	],
	"bufferViews":[
		{
			"buffer":0,
			"byteLength":1584,
			"byteOffset":0,
			"target":34962
		},
		{
			"buffer":0,
			"byteLength":1584,
			"byteOffset":1584,
			"target":34962
		},
		{
			"buffer":0,
			"byteLength":1056,
			"byteOffset":3168,
			"target":34962
		},
		{
			"buffer":0,
			"byteLength":624,
			"byteOffset":4224,
			"target":34963
		},
		{
			"buffer":0,
			"byteLength":2976,
			"byteOffset":4848,
			"target":34962
		},
		{
			"buffer":0,
			"byteLength":2976,
			"byteOffset":7824,
			"target":34962
		},
		{
			"buffer":0,
			"byteLength":1984,
			"byteOffset":10800,
			"target":34962
		},
		{
			"buffer":0,
			"byteLength":1104,
			"byteOffset":12784,
			"target":34963
		},
		{
			"buffer":0,
			"byteLength":1536,
			"byteOffset":13888,
			"target":34962
		},
		{
			"buffer":0,
			"byteLength":1536,
			"byteOffset":15424,
			"target":34962
		},
		{
			"buffer":0,
			"byteLength":1024,
			"byteOffset":16960,
			"target":34962
		},
		{
			"buffer":0,
			"byteLength":624,
			"byteOffset":17984,
			"target":34963
		},
		{
			"buffer":0,
			"byteLength":2592,
			"byteOffset":18608,
			"target":34962
		},
		{
			"buffer":0,
			"byteLength":2592,
			"byteOffset":21200,
			"target":34962
		},
		{
			"buffer":0,
			"byteLength":1728,
			"byteOffset":23792,
			"target":34962
		},
		{
			"buffer":0,
			"byteLength":912,
			"byteOffset":25520,
			"target":34963
		},
		{
			"buffer":0,
			"byteLength":1632,
			"byteOffset":26432,
			"target":34962
		},
		{
			"buffer":0,
			"byteLength":1632,
			"byteOffset":28064,
			"target":34962
		},
		{
			"buffer":0,
			"byteLength":1088,
			"byteOffset":29696,
			"target":34962
		},
		{
			"buffer":0,
			"byteLength":672,
			"byteOffset":30784,
			"target":34963
		},
		{
			"buffer":0,
			"byteLength":2208,
			"byteOffset":31456,
			"target":34962
		},
		{
			"buffer":0,
			"byteLength":2208,
			"byteOffset":33664,
			"target":34962
		},
		{
			"buffer":0,
			"byteLength":1472,
			"byteOffset":35872,
			"target":34962
		},
		{
			"buffer":0,
			"byteLength":768,
			"byteOffset":37344,
			"target":34963
		},
		{
			"buffer":0,
			"byteLength":2016,
			"byteOffset":38112,
			"target":34962
		},
		{
			"buffer":0,
			"byteLength":2016,
			"byteOffset":40128,
			"target":34962
		},
		{
			"buffer":0,
			"byteLength":1344,
			"byteOffset":42144,
			"target":34962
		},
		{
			"buffer":0,
			"byteLength":864,
			"byteOffset":43488,
			"target":34963
		},
		{
			"buffer":0,
			"byteLength":3648,
			"byteOffset":44352,
			"target":34962
		},
		{
			"buffer":0,
			"byteLength":3648,
			"byteOffset":48000,
			"target":34962
		},
		{
			"buffer":0,
			"byteLength":2432,
			"byteOffset":51648,
			"target":34962
		},
		{
			"buffer":0,
			"byteLength":1392,
			"byteOffset":54080,
			"target":34963
		},
		{
			"buffer":0,
			"byteLength":600,
			"byteOffset":55472,
			"target":34962
		},
		{
			"buffer":0,
			"byteLength":600,
			"byteOffset":56072,
			"target":34962
		},
		{
			"buffer":0,
			"byteLength":400,
			"byteOffset":56672,
			"target":34962
		},
		{
			"buffer":0,
			"byteLength":276,
			"byteOffset":57072,
			"target":34963
		},
		{
			"buffer":0,
			"byteLength":2844,
			"byteOffset":57348,
			"target":34962
		},
		{
			"buffer":0,
			"byteLength":2844,
			"byteOffset":60192,
			"target":34962
		},
		{
			"buffer":0,
			"byteLength":1896,
			"byteOffset":63036,
			"target":34962
		},
		{
			"buffer":0,
			"byteLength":1152,
			"byteOffset":64932,
			"target":34963
		},
		{
			"buffer":0,
			"byteLength":2148,
			"byteOffset":66084,
			"target":34962
		},
		{
			"buffer":0,
			"byteLength":2148,
			"byteOffset":68232,
			"target":34962
		},
		{
			"buffer":0,
			"byteLength":1432,
			"byteOffset":70380,
			"target":34962
		},
		{
			"buffer":0,
			"byteLength":912,
			"byteOffset":71812,
			"target":34963
		},
		{
			"buffer":0,
			"byteLength":2208,
			"byteOffset":72724,
			"target":34962
		},
		{
			"buffer":0,
			"byteLength":2208,
			"byteOffset":74932,
			"target":34962
		},
		{
			"buffer":0,
			"byteLength":1472,
			"byteOffset":77140,
			"target":34962
		},
		{
			"buffer":0,
			"byteLength":912,
			"byteOffset":78612,
			"target":34963
		}
	],
	"buffers":[
		{
			"byteLength":79524,
			"uri":"logoAnnotated.bin"
		}
	]
}
