{
	"asset":{
		"generator":"Khronos glTF Blender I/O v4.0.44",
		"version":"2.0"
	},
	"scene":0,
	"scenes":[
		{
			"name":"Scene",
			"nodes":[
				0,
				1,
				2
			]
		}
	],
	"nodes":[
		{
			"name":"AnchorPoint.028",
			"translation":[
				-0.407004177570343,
				1.4750007390975952,
				-0.07499932497739792
			]
		},
		{
			"name":"SelectPoint.029",
			"translation":[
				0,
				1.4732547998428345,
				-0.15240153670310974
			]
		},
		{
			"mesh":0,
			"name":"shelfBLongMiddle",
			"scale":[
				0.025400014594197273,
				0.025400014594197273,
				0.025400014594197273
			],
			"translation":[
				-0.03958142176270485,
				1.4765623807907104,
				-0.11322126537561417
			]
		}
	],
	"materials":[
		{
			"doubleSided":true,
			"name":"Material",
			"pbrMetallicRoughness":{
				"baseColorFactor":[
					0.800000011920929,
					0.800000011920929,
					0.800000011920929,
					1
				],
				"metallicFactor":0,
				"roughnessFactor":0.5
			}
		}
	],
	"meshes":[
		{
			"name":"ID559",
			"primitives":[
				{
					"attributes":{
						"POSITION":0,
						"NORMAL":1,
						"TEXCOORD_0":2
					},
					"indices":3,
					"material":0
				}
			]
		}
	],
	"accessors":[
		{
			"bufferView":0,
			"componentType":5126,
			"count":387,
			"max":[
				17.558298110961914,
				1.1176437139511108,
				4.4575114250183105
			],
			"min":[
				-14.441699981689453,
				-1.3823564052581787,
				-1.5424884557724
			],
			"type":"VEC3"
		},
		{
			"bufferView":1,
			"componentType":5126,
			"count":387,
			"type":"VEC3"
		},
		{
			"bufferView":2,
			"componentType":5126,
			"count":387,
			"type":"VEC2"
		},
		{
			"bufferView":3,
			"componentType":5123,
			"count":672,
			"type":"SCALAR"
		}
	],
	"bufferViews":[
		{
			"buffer":0,
			"byteLength":4644,
			"byteOffset":0,
			"target":34962
		},
		{
			"buffer":0,
			"byteLength":4644,
			"byteOffset":4644,
			"target":34962
		},
		{
			"buffer":0,
			"byteLength":3096,
			"byteOffset":9288,
			"target":34962
		},
		{
			"buffer":0,
			"byteLength":1344,
			"byteOffset":12384,
			"target":34963
		}
	],
	"buffers":[
		{
			"byteLength":13728,
			"uri":"shelfB32Middle.bin"
		}
	]
}
