{
	"asset":{
		"generator":"Khronos glTF Blender I/O v4.0.44",
		"version":"2.0"
	},
	"scene":0,
	"scenes":[
		{
			"name":"Scene",
			"nodes":[
				0,
				1,
				2
			]
		}
	],
	"nodes":[
		{
			"name":"AnchorPoint.026",
			"translation":[
				0.20055387914180756,
				1.1270018815994263,
				-0.07499932497739792
			]
		},
		{
			"name":"SelectPoint.026",
			"translation":[
				0,
				1.1175987720489502,
				-0.07499932497739792
			]
		},
		{
			"mesh":0,
			"name":"shelfBShortBottom",
			"rotation":[
				0,
				-0.7071066498756409,
				0,
				0.70710688829422
			],
			"scale":[
				0.025400014594197273,
				0.025400014594197273,
				0.025400014594197273
			],
			"translation":[
				0.0009262034436687827,
				1.1277304887771606,
				-0.12164600938558578
			]
		}
	],
	"materials":[
		{
			"doubleSided":true,
			"name":"Material",
			"pbrMetallicRoughness":{
				"baseColorFactor":[
					0.800000011920929,
					0.800000011920929,
					0.800000011920929,
					1
				],
				"metallicFactor":0,
				"roughnessFactor":0.5
			}
		}
	],
	"meshes":[
		{
			"name":"ID603",
			"primitives":[
				{
					"attributes":{
						"POSITION":0,
						"NORMAL":1,
						"TEXCOORD_0":2
					},
					"indices":3,
					"material":0
				}
			]
		}
	],
	"accessors":[
		{
			"bufferView":0,
			"componentType":5126,
			"count":224,
			"max":[
				4.789172649383545,
				0.35121726989746094,
				8.036463737487793
			],
			"min":[
				-1.2108274698257446,
				-0.398822546005249,
				-7.963536262512207
			],
			"type":"VEC3"
		},
		{
			"bufferView":1,
			"componentType":5126,
			"count":224,
			"type":"VEC3"
		},
		{
			"bufferView":2,
			"componentType":5126,
			"count":224,
			"type":"VEC2"
		},
		{
			"bufferView":3,
			"componentType":5123,
			"count":564,
			"type":"SCALAR"
		}
	],
	"bufferViews":[
		{
			"buffer":0,
			"byteLength":2688,
			"byteOffset":0,
			"target":34962
		},
		{
			"buffer":0,
			"byteLength":2688,
			"byteOffset":2688,
			"target":34962
		},
		{
			"buffer":0,
			"byteLength":1792,
			"byteOffset":5376,
			"target":34962
		},
		{
			"buffer":0,
			"byteLength":1128,
			"byteOffset":7168,
			"target":34963
		}
	],
	"buffers":[
		{
			"byteLength":8296,
			"uri":"shelfB16Bottom.bin"
		}
	]
}
