{
	"asset":{
		"generator":"Khronos glTF Blender I/O v4.0.44",
		"version":"2.0"
	},
	"scene":0,
	"scenes":[
		{
			"name":"Scene",
			"nodes":[
				0,
				1,
				2
			]
		}
	],
	"nodes":[
		{
			"name":"AnchorPoint.025",
			"translation":[
				-0.20319993793964386,
				1.1700013875961304,
				-0.07499932497739792
			]
		},
		{
			"name":"SelectPoint.025",
			"translation":[
				0,
				1.168516755104065,
				-0.1524008959531784
			]
		},
		{
			"mesh":0,
			"name":"shelfBShortMiddle",
			"scale":[
				0.025400014594197273,
				0.025400014594197273,
				0.025400014594197273
			],
			"translation":[
				-0.0027627283707261086,
				1.1701833009719849,
				-0.11190160363912582
			]
		}
	],
	"materials":[
		{
			"doubleSided":true,
			"name":"Material",
			"pbrMetallicRoughness":{
				"baseColorFactor":[
					0.800000011920929,
					0.800000011920929,
					0.800000011920929,
					1
				],
				"metallicFactor":0,
				"roughnessFactor":0.5
			}
		}
	],
	"meshes":[
		{
			"name":"ID625",
			"primitives":[
				{
					"attributes":{
						"POSITION":0,
						"NORMAL":1,
						"TEXCOORD_0":2
					},
					"indices":3,
					"material":0
				}
			]
		}
	],
	"accessors":[
		{
			"bufferView":0,
			"componentType":5126,
			"count":357,
			"max":[
				8.108768463134766,
				1.179815411567688,
				4.405559062957764
			],
			"min":[
				-7.891231060028076,
				-1.3201847076416016,
				-1.5944409370422363
			],
			"type":"VEC3"
		},
		{
			"bufferView":1,
			"componentType":5126,
			"count":357,
			"type":"VEC3"
		},
		{
			"bufferView":2,
			"componentType":5126,
			"count":357,
			"type":"VEC2"
		},
		{
			"bufferView":3,
			"componentType":5123,
			"count":636,
			"type":"SCALAR"
		}
	],
	"bufferViews":[
		{
			"buffer":0,
			"byteLength":4284,
			"byteOffset":0,
			"target":34962
		},
		{
			"buffer":0,
			"byteLength":4284,
			"byteOffset":4284,
			"target":34962
		},
		{
			"buffer":0,
			"byteLength":2856,
			"byteOffset":8568,
			"target":34962
		},
		{
			"buffer":0,
			"byteLength":1272,
			"byteOffset":11424,
			"target":34963
		}
	],
	"buffers":[
		{
			"byteLength":12696,
			"uri":"shelfB16Middle.bin"
		}
	]
}
