{
	"asset":{
		"generator":"Khronos glTF Blender I/O v4.0.44",
		"version":"2.0"
	},
	"scene":0,
	"scenes":[
		{
			"name":"Scene",
			"nodes":[
				0,
				1,
				2,
				3,
				4
			]
		}
	],
	"nodes":[
		{
			"name":"AnchorPoint.019",
			"translation":[
				0,
				0.39000096917152405,
				-0.19237373769283295
			]
		},
		{
			"name":"SelectPoint.019",
			"translation":[
				0.008336161263287067,
				0.4065464735031128,
				0
			]
		},
		{
			"mesh":0,
			"name":"squatterTop",
			"scale":[
				0.02539999969303608,
				0.02539999969303608,
				0.02539999969303608
			],
			"translation":[
				0,
				0.38232433795928955,
				0
			]
		},
		{
			"mesh":1,
			"name":"squatterTopBlockInner1",
			"scale":[
				0.02539999969303608,
				0.02539999969303608,
				0.02539999969303608
			],
			"translation":[
				-0.144019216299057,
				0.36844417452812195,
				0.21402670443058014
			]
		},
		{
			"mesh":2,
			"name":"squatterTopBlockInner2",
			"scale":[
				0.02539999969303608,
				0.02539999969303608,
				0.02539999969303608
			],
			"translation":[
				-0.144019216299057,
				0.36844417452812195,
				0.21402670443058014
			]
		}
	],
	"materials":[
		{
			"doubleSided":true,
			"name":"Material",
			"pbrMetallicRoughness":{
				"baseColorFactor":[
					0.800000011920929,
					0.800000011920929,
					0.800000011920929,
					1
				],
				"metallicFactor":0,
				"roughnessFactor":0.5
			}
		}
	],
	"meshes":[
		{
			"name":"ID82.002",
			"primitives":[
				{
					"attributes":{
						"POSITION":0,
						"NORMAL":1,
						"TEXCOORD_0":2
					},
					"indices":3,
					"material":0
				}
			]
		},
		{
			"name":"ID106.002",
			"primitives":[
				{
					"attributes":{
						"POSITION":4,
						"NORMAL":5,
						"TEXCOORD_0":6
					},
					"indices":7,
					"material":0
				}
			]
		},
		{
			"name":"ID100.002",
			"primitives":[
				{
					"attributes":{
						"POSITION":8,
						"NORMAL":9,
						"TEXCOORD_0":10
					},
					"indices":7,
					"material":0
				}
			]
		}
	],
	"accessors":[
		{
			"bufferView":0,
			"componentType":5126,
			"count":659,
			"max":[
				6.329958438873291,
				0.9535368084907532,
				8.426241874694824
			],
			"min":[
				-5.670041561126709,
				-0.5464631915092468,
				-7.573758125305176
			],
			"type":"VEC3"
		},
		{
			"bufferView":1,
			"componentType":5126,
			"count":659,
			"type":"VEC3"
		},
		{
			"bufferView":2,
			"componentType":5126,
			"count":659,
			"type":"VEC2"
		},
		{
			"bufferView":3,
			"componentType":5123,
			"count":2442,
			"type":"SCALAR"
		},
		{
			"bufferView":4,
			"componentType":5126,
			"count":20,
			"max":[
				11.5,
				0.75,
				-15
			],
			"min":[
				0.5,
				0,
				-15.5
			],
			"type":"VEC3"
		},
		{
			"bufferView":5,
			"componentType":5126,
			"count":20,
			"type":"VEC3"
		},
		{
			"bufferView":6,
			"componentType":5126,
			"count":20,
			"type":"VEC2"
		},
		{
			"bufferView":7,
			"componentType":5123,
			"count":30,
			"type":"SCALAR"
		},
		{
			"bufferView":8,
			"componentType":5126,
			"count":20,
			"max":[
				11.5,
				0.75,
				-0.5
			],
			"min":[
				0.5,
				0,
				-1
			],
			"type":"VEC3"
		},
		{
			"bufferView":9,
			"componentType":5126,
			"count":20,
			"type":"VEC3"
		},
		{
			"bufferView":10,
			"componentType":5126,
			"count":20,
			"type":"VEC2"
		}
	],
	"bufferViews":[
		{
			"buffer":0,
			"byteLength":7908,
			"byteOffset":0,
			"target":34962
		},
		{
			"buffer":0,
			"byteLength":7908,
			"byteOffset":7908,
			"target":34962
		},
		{
			"buffer":0,
			"byteLength":5272,
			"byteOffset":15816,
			"target":34962
		},
		{
			"buffer":0,
			"byteLength":4884,
			"byteOffset":21088,
			"target":34963
		},
		{
			"buffer":0,
			"byteLength":240,
			"byteOffset":25972,
			"target":34962
		},
		{
			"buffer":0,
			"byteLength":240,
			"byteOffset":26212,
			"target":34962
		},
		{
			"buffer":0,
			"byteLength":160,
			"byteOffset":26452,
			"target":34962
		},
		{
			"buffer":0,
			"byteLength":60,
			"byteOffset":26612,
			"target":34963
		},
		{
			"buffer":0,
			"byteLength":240,
			"byteOffset":26672,
			"target":34962
		},
		{
			"buffer":0,
			"byteLength":240,
			"byteOffset":26912,
			"target":34962
		},
		{
			"buffer":0,
			"byteLength":160,
			"byteOffset":27152,
			"target":34962
		}
	],
	"buffers":[
		{
			"byteLength":27312,
			"uri":"squatterTop.bin"
		}
	]
}
