{
	"asset":{
		"generator":"Khronos glTF Blender I/O v4.0.44",
		"version":"2.0"
	},
	"scene":0,
	"scenes":[
		{
			"name":"Scene",
			"nodes":[
				0,
				1,
				2,
				3,
				4,
				5,
				6,
				7
			]
		}
	],
	"nodes":[
		{
			"name":"AnchorPoint.006",
			"translation":[
				0,
				0.4524367153644562,
				0.19597961008548737
			]
		},
		{
			"name":"SelectPoint.005",
			"translation":[
				0,
				0.4572015106678009,
				0
			]
		},
		{
			"mesh":0,
			"name":"grampsTopBody",
			"scale":[
				0.025400014594197273,
				0.025400014594197273,
				0.025400014594197273
			],
			"translation":[
				0.0004452334251254797,
				0.43440017104148865,
				-0.011213480494916439
			]
		},
		{
			"mesh":1,
			"name":"grampsTopInnerBlockLeg1",
			"scale":[
				0.025400014594197273,
				0.025400014594197273,
				0.025400014594197273
			],
			"translation":[
				-0.19647613167762756,
				0.41910016536712646,
				0.19597969949245453
			]
		},
		{
			"mesh":2,
			"name":"grampsTopInnerBlockLeg2",
			"scale":[
				0.025400014594197273,
				0.025400014594197273,
				0.025400014594197273
			],
			"translation":[
				-0.19647613167762756,
				0.41910016536712646,
				0.19597969949245453
			]
		},
		{
			"mesh":3,
			"name":"grampsTopInnerBlockLeg3",
			"scale":[
				0.025400014594197273,
				0.025400014594197273,
				0.025400014594197273
			],
			"translation":[
				-0.19647613167762756,
				0.41910016536712646,
				0.19597969949245453
			]
		},
		{
			"mesh":4,
			"name":"grampsTopInnerBlockLeg4",
			"scale":[
				0.025400014594197273,
				0.025400014594197273,
				0.025400014594197273
			],
			"translation":[
				-0.19647613167762756,
				0.41910016536712646,
				0.19597969949245453
			]
		},
		{
			"mesh":5,
			"name":"grampsTopPanel",
			"scale":[
				0.025400014594197273,
				0.025400014594197273,
				0.025400014594197273
			],
			"translation":[
				0.0008972751093097031,
				0.45720022916793823,
				-0.02179783582687378
			]
		}
	],
	"materials":[
		{
			"doubleSided":true,
			"name":"Material",
			"pbrMetallicRoughness":{
				"baseColorFactor":[
					0.800000011920929,
					0.800000011920929,
					0.800000011920929,
					1
				],
				"metallicFactor":0,
				"roughnessFactor":0.5
			}
		}
	],
	"meshes":[
		{
			"name":"ID48.001",
			"primitives":[
				{
					"attributes":{
						"POSITION":0,
						"NORMAL":1,
						"TEXCOORD_0":2
					},
					"indices":3,
					"material":0
				}
			]
		},
		{
			"name":"ID36.001",
			"primitives":[
				{
					"attributes":{
						"POSITION":4,
						"NORMAL":5,
						"TEXCOORD_0":6
					},
					"indices":7,
					"material":0
				}
			]
		},
		{
			"name":"ID30.001",
			"primitives":[
				{
					"attributes":{
						"POSITION":8,
						"NORMAL":9,
						"TEXCOORD_0":10
					},
					"indices":7,
					"material":0
				}
			]
		},
		{
			"name":"ID24.001",
			"primitives":[
				{
					"attributes":{
						"POSITION":11,
						"NORMAL":12,
						"TEXCOORD_0":13
					},
					"indices":7,
					"material":0
				}
			]
		},
		{
			"name":"ID42.001",
			"primitives":[
				{
					"attributes":{
						"POSITION":14,
						"NORMAL":15,
						"TEXCOORD_0":16
					},
					"indices":17,
					"material":0
				}
			]
		},
		{
			"name":"ID54.001",
			"primitives":[
				{
					"attributes":{
						"POSITION":18,
						"NORMAL":19,
						"TEXCOORD_0":20
					},
					"indices":21,
					"material":0
				}
			]
		}
	],
	"accessors":[
		{
			"bufferView":0,
			"componentType":5126,
			"count":133,
			"max":[
				7.717737674713135,
				0.8976377844810486,
				8.157209396362305
			],
			"min":[
				-7.752822399139404,
				-0.6023622155189514,
				-7.313350677490234
			],
			"type":"VEC3"
		},
		{
			"bufferView":1,
			"componentType":5126,
			"count":133,
			"type":"VEC3"
		},
		{
			"bufferView":2,
			"componentType":5126,
			"count":133,
			"type":"VEC2"
		},
		{
			"bufferView":3,
			"componentType":5123,
			"count":255,
			"type":"SCALAR"
		},
		{
			"bufferView":4,
			"componentType":5126,
			"count":20,
			"max":[
				2.297780990600586,
				0.75,
				-7.485280990600586
			],
			"min":[
				0.7977814078330994,
				0,
				-7.985280990600586
			],
			"type":"VEC3"
		},
		{
			"bufferView":5,
			"componentType":5126,
			"count":20,
			"type":"VEC3"
		},
		{
			"bufferView":6,
			"componentType":5126,
			"count":20,
			"type":"VEC2"
		},
		{
			"bufferView":7,
			"componentType":5123,
			"count":30,
			"type":"SCALAR"
		},
		{
			"bufferView":8,
			"componentType":5126,
			"count":20,
			"max":[
				7.985280990600586,
				0.75,
				-13.17278003692627
			],
			"min":[
				7.485280990600586,
				7.105426934084528e-15,
				-14.67278003692627
			],
			"type":"VEC3"
		},
		{
			"bufferView":9,
			"componentType":5126,
			"count":20,
			"type":"VEC3"
		},
		{
			"bufferView":10,
			"componentType":5126,
			"count":20,
			"type":"VEC2"
		},
		{
			"bufferView":11,
			"componentType":5126,
			"count":20,
			"max":[
				14.67278003692627,
				0.75,
				-7.485280990600586
			],
			"min":[
				13.17278003692627,
				0,
				-7.985280990600586
			],
			"type":"VEC3"
		},
		{
			"bufferView":12,
			"componentType":5126,
			"count":20,
			"type":"VEC3"
		},
		{
			"bufferView":13,
			"componentType":5126,
			"count":20,
			"type":"VEC2"
		},
		{
			"bufferView":14,
			"componentType":5126,
			"count":24,
			"max":[
				7.985280990600586,
				0.75,
				-0.7977814078330994
			],
			"min":[
				7.485280990600586,
				7.105426934084528e-15,
				-2.297780990600586
			],
			"type":"VEC3"
		},
		{
			"bufferView":15,
			"componentType":5126,
			"count":24,
			"type":"VEC3"
		},
		{
			"bufferView":16,
			"componentType":5126,
			"count":24,
			"type":"VEC2"
		},
		{
			"bufferView":17,
			"componentType":5123,
			"count":42,
			"type":"SCALAR"
		},
		{
			"bufferView":18,
			"componentType":5126,
			"count":18,
			"max":[
				7.512423515319824,
				0,
				8.386422157287598
			],
			"min":[
				-7.583136558532715,
				0,
				-6.709137916564941
			],
			"type":"VEC3"
		},
		{
			"bufferView":19,
			"componentType":5126,
			"count":18,
			"type":"VEC3"
		},
		{
			"bufferView":20,
			"componentType":5126,
			"count":18,
			"type":"VEC2"
		},
		{
			"bufferView":21,
			"componentType":5123,
			"count":42,
			"type":"SCALAR"
		}
	],
	"bufferViews":[
		{
			"buffer":0,
			"byteLength":1596,
			"byteOffset":0,
			"target":34962
		},
		{
			"buffer":0,
			"byteLength":1596,
			"byteOffset":1596,
			"target":34962
		},
		{
			"buffer":0,
			"byteLength":1064,
			"byteOffset":3192,
			"target":34962
		},
		{
			"buffer":0,
			"byteLength":510,
			"byteOffset":4256,
			"target":34963
		},
		{
			"buffer":0,
			"byteLength":240,
			"byteOffset":4768,
			"target":34962
		},
		{
			"buffer":0,
			"byteLength":240,
			"byteOffset":5008,
			"target":34962
		},
		{
			"buffer":0,
			"byteLength":160,
			"byteOffset":5248,
			"target":34962
		},
		{
			"buffer":0,
			"byteLength":60,
			"byteOffset":5408,
			"target":34963
		},
		{
			"buffer":0,
			"byteLength":240,
			"byteOffset":5468,
			"target":34962
		},
		{
			"buffer":0,
			"byteLength":240,
			"byteOffset":5708,
			"target":34962
		},
		{
			"buffer":0,
			"byteLength":160,
			"byteOffset":5948,
			"target":34962
		},
		{
			"buffer":0,
			"byteLength":240,
			"byteOffset":6108,
			"target":34962
		},
		{
			"buffer":0,
			"byteLength":240,
			"byteOffset":6348,
			"target":34962
		},
		{
			"buffer":0,
			"byteLength":160,
			"byteOffset":6588,
			"target":34962
		},
		{
			"buffer":0,
			"byteLength":288,
			"byteOffset":6748,
			"target":34962
		},
		{
			"buffer":0,
			"byteLength":288,
			"byteOffset":7036,
			"target":34962
		},
		{
			"buffer":0,
			"byteLength":192,
			"byteOffset":7324,
			"target":34962
		},
		{
			"buffer":0,
			"byteLength":84,
			"byteOffset":7516,
			"target":34963
		},
		{
			"buffer":0,
			"byteLength":216,
			"byteOffset":7600,
			"target":34962
		},
		{
			"buffer":0,
			"byteLength":216,
			"byteOffset":7816,
			"target":34962
		},
		{
			"buffer":0,
			"byteLength":144,
			"byteOffset":8032,
			"target":34962
		},
		{
			"buffer":0,
			"byteLength":84,
			"byteOffset":8176,
			"target":34963
		}
	],
	"buffers":[
		{
			"byteLength":8260,
			"uri":"grampsTop.bin"
		}
	]
}
