{
	"asset":{
		"generator":"Khronos glTF Blender I/O v4.0.44",
		"version":"2.0"
	},
	"scene":0,
	"scenes":[
		{
			"name":"Scene",
			"nodes":[
				0,
				1,
				2
			]
		}
	],
	"nodes":[
		{
			"name":"AnchorPoint.016",
			"translation":[
				-0.4063863754272461,
				0.4000079333782196,
				0.11914447695016861
			]
		},
		{
			"name":"SelectPoint.015",
			"translation":[
				-0.37518900632858276,
				0.774700939655304,
				0.02850477769970894
			]
		},
		{
			"mesh":0,
			"name":"horseLeg3",
			"rotation":[
				0,
				-0.7070666551589966,
				0,
				0.7071468830108643
			],
			"scale":[
				0.025400014594197273,
				0.025400014594197273,
				0.025400014594197273
			],
			"translation":[
				-0.4063972532749176,
				0,
				0.01909729652106762
			]
		}
	],
	"materials":[
		{
			"doubleSided":true,
			"name":"Material",
			"pbrMetallicRoughness":{
				"baseColorFactor":[
					0.800000011920929,
					0.800000011920929,
					0.800000011920929,
					1
				],
				"metallicFactor":0,
				"roughnessFactor":0.5
			}
		}
	],
	"meshes":[
		{
			"name":"ID222",
			"primitives":[
				{
					"attributes":{
						"POSITION":0,
						"NORMAL":1,
						"TEXCOORD_0":2
					},
					"indices":3,
					"material":0
				}
			]
		}
	],
	"accessors":[
		{
			"bufferView":0,
			"componentType":5126,
			"count":60,
			"max":[
				8.930429458618164,
				30.5,
				0
			],
			"min":[
				0,
				0,
				-2.5
			],
			"type":"VEC3"
		},
		{
			"bufferView":1,
			"componentType":5126,
			"count":60,
			"type":"VEC3"
		},
		{
			"bufferView":2,
			"componentType":5126,
			"count":60,
			"type":"VEC2"
		},
		{
			"bufferView":3,
			"componentType":5123,
			"count":96,
			"type":"SCALAR"
		}
	],
	"bufferViews":[
		{
			"buffer":0,
			"byteLength":720,
			"byteOffset":0,
			"target":34962
		},
		{
			"buffer":0,
			"byteLength":720,
			"byteOffset":720,
			"target":34962
		},
		{
			"buffer":0,
			"byteLength":480,
			"byteOffset":1440,
			"target":34962
		},
		{
			"buffer":0,
			"byteLength":192,
			"byteOffset":1920,
			"target":34963
		}
	],
	"buffers":[
		{
			"byteLength":2112,
			"uri":"horseLeg3.bin"
		}
	]
}
